<svg width="20" height="20" viewBox="0 0 20 20" fill="none" xmlns="http://www.w3.org/2000/svg">
<path d="M18.0002 0H13.3335V6.66667H20.0002V2C20.0002 0.89543 19.1047 0 18.0002 0Z" fill="white"/>
<path d="M6.66667 13.333H0V17.9997C0 19.1042 0.895428 19.9997 2 19.9997H6.66667V13.333Z" fill="white"/>
<path d="M6.96017 0.292956C6.77263 0.105381 6.51825 0 6.253 0H1C0.447715 0 0 0.447715 0 1V6.253C0 6.51825 0.105382 6.77263 0.292957 6.96017L6.66726 13.3333V6.66726H13.3333L6.96017 0.292956Z" fill="white"/>
<path d="M13.0397 19.7074C13.2272 19.8949 13.4816 20.0003 13.7468 20.0003H18.9998C19.5521 20.0003 19.9998 19.5526 19.9998 19.0003V13.7473C19.9998 13.4821 19.8945 13.2277 19.7069 13.0402L13.3326 6.66699V13.3331H6.6665L13.0397 19.7074Z" fill="white"/>
</svg>
